<svg width="16" height="9" viewBox="0 0 16 9" fill="none" xmlns="http://www.w3.org/2000/svg">
<path d="M7.71991 7.17739L13.7686 1.12868L13.7686 1.12865C13.854 1.04337 13.9626 0.985295 14.0809 0.961769C14.1993 0.938243 14.3219 0.950323 14.4333 0.996482C14.5448 1.04264 14.64 1.12081 14.7071 1.2211C14.7741 1.32132 14.8098 1.43915 14.8099 1.5597C14.8099 1.55977 14.8099 1.55985 14.8099 1.55993L14.5599 1.55998C14.56 1.60726 14.5507 1.65409 14.5326 1.69776L14.7635 1.79348C14.7329 1.86747 14.6879 1.93469 14.6312 1.99128L7.71991 7.17739ZM7.71991 7.17739L1.67253 1.13C1.61661 1.07257 1.54991 1.02672 1.47625 0.995079L1.37758 1.22478L1.47625 0.995078C1.40183 0.96311 1.32179 0.946281 1.24079 0.945578C1.15979 0.944874 1.07947 0.960308 1.0045 0.990978C0.929534 1.02165 0.861427 1.06695 0.804153 1.12422C0.746879 1.18149 0.701584 1.2496 0.670913 1.32457C0.640242 1.39954 0.624807 1.47986 0.625511 1.56086C0.626215 1.64185 0.643042 1.72189 0.675012 1.79632C0.706656 1.86998 0.752508 1.93668 0.809938 1.9926L7.28862 8.47128L7.28864 8.4713C7.40303 8.58566 7.55816 8.6499 7.71991 8.6499C7.88166 8.6499 8.03679 8.58566 8.15118 8.4713L8.15121 8.47128L14.6309 1.99154L7.71991 7.17739Z" fill="#4E5356" stroke="#4E5356" stroke-width="0.5"/>
</svg>
