<svg width="20" height="20" viewBox="0 0 20 20" fill="none" xmlns="http://www.w3.org/2000/svg">
<path d="M20 7.78571L18.1429 1.07143C18 0.428571 17.4286 0 16.7857 0H3.21429C2.57143 0 2 0.428571 1.85714 1.07143L0 7.78571C0 7.85714 0 7.85714 0 7.92857V8.57143C0 9 0.285714 9.28571 0.714286 9.28571H2.14286V19.2857C2.14286 19.7143 2.42857 20 2.85714 20H17.1429C17.5714 20 17.8571 19.7143 17.8571 19.2857V9.28571H19.2857C19.7143 9.28571 20 9 20 8.57143V7.92857C20 7.85714 20 7.85714 20 7.78571ZM15.7143 13.2143C15.7143 13.4286 15.5714 13.5714 15.3571 13.5714H4.64286C4.42857 13.5714 4.28571 13.4286 4.28571 13.2143V9.28571H15.7143V13.2143Z" fill="#F15B5D"/>
</svg>
