<svg width="24" height="24" viewBox="0 0 24 24" fill="none" xmlns="http://www.w3.org/2000/svg">
<path d="M20.7498 9.2504L18.0002 4.99976H6.00017L3.25049 9.24944C3.25049 10.1991 4.05017 10.9998 5.00081 10.9998C5.95049 10.9998 6.75113 10.2498 6.75113 9.24944C6.75113 10.1991 7.55081 10.9998 8.50145 10.9998C9.45113 10.9998 10.2518 10.2498 10.2518 9.24944C10.2518 10.1991 11.0514 10.9998 12.0021 10.9998C12.9518 10.9998 13.7524 10.2498 13.7524 9.24944C13.7524 10.1991 14.5521 10.9998 15.5027 10.9998C16.4524 10.9998 17.253 10.2498 17.253 9.24944C17.253 10.1991 18.0527 10.9998 19.0034 10.9998C19.9502 10.9998 20.7499 10.2498 20.7499 9.25037L20.7498 9.2504Z" fill="#87CAFE"/>
<path d="M19.0003 13.0004C18.45 13.0004 17.9503 12.9001 17.5003 12.7004V16.5001H6.49968V12.7004C6.04968 12.9001 5.55 13.0004 4.99968 13.0004C4.84968 13.0004 4.65 13.0004 4.5 12.9508V18.4998H19.499L19.5 12.9498C19.35 13.0004 19.1503 13.0004 19.0003 13.0004L19.0003 13.0004Z" fill="#87CAFE"/>
</svg>
