<svg width="18" height="18" viewBox="0 0 18 18" fill="none" xmlns="http://www.w3.org/2000/svg">
<path d="M17.0692 16.051L12.155 11.1369C13.2589 9.77219 13.7971 8.036 13.6587 6.28622C13.5203 4.53643 12.7159 2.90645 11.4111 1.7323C10.1064 0.558148 8.40096 -0.0706572 6.64631 -0.024481C4.89167 0.0216951 3.22163 0.739332 1.98048 1.98048C0.739332 3.22163 0.0216951 4.89167 -0.024481 6.64631C-0.0706572 8.40096 0.558148 10.1064 1.7323 11.4111C2.90645 12.7159 4.53644 13.5203 6.28622 13.6587C8.036 13.7971 9.77219 13.2589 11.1369 12.155L16.0511 17.0691C16.1869 17.2002 16.3688 17.2728 16.5576 17.2712C16.7464 17.2695 16.927 17.1938 17.0605 17.0603C17.1939 16.9268 17.2697 16.7462 17.2713 16.5574C17.2729 16.3687 17.2004 16.1868 17.0692 16.051ZM6.84018 12.24C5.77216 12.24 4.72813 11.9233 3.8401 11.33C2.95208 10.7366 2.25995 9.89325 1.85123 8.90653C1.44252 7.91981 1.33558 6.83405 1.54394 5.78655C1.7523 4.73905 2.2666 3.77686 3.0218 3.02166C3.77701 2.26646 4.7392 1.75216 5.78669 1.5438C6.83419 1.33544 7.91995 1.44237 8.90667 1.85109C9.89339 2.2598 10.7368 2.95193 11.3301 3.83996C11.9235 4.72798 12.2402 5.77202 12.2402 6.84004C12.2386 8.27172 11.6691 9.6443 10.6568 10.6566C9.64444 11.669 8.27186 12.2384 6.84018 12.24Z" fill="#707585"/>
</svg>
