<svg width="17" height="21" viewBox="0 0 17 21" fill="none" xmlns="http://www.w3.org/2000/svg">
<path d="M8.51973 10.56C11.1707 10.56 13.3197 8.41093 13.3197 5.75996C13.3197 3.10899 11.1707 0.959961 8.51973 0.959961C5.86876 0.959961 3.71973 3.10899 3.71973 5.75996C3.71973 8.41093 5.86876 10.56 8.51973 10.56Z" fill="#DFE4E9"/>
<path d="M8.51984 11.52C6.48298 11.52 4.52954 12.3292 3.08926 13.7694C1.64898 15.2097 0.839844 17.1632 0.839844 19.2V19.68C0.839844 19.8073 0.890415 19.9294 0.980433 20.0194C1.07045 20.1094 1.19254 20.16 1.31984 20.16H15.7198C15.8471 20.16 15.9692 20.1094 16.0593 20.0194C16.1493 19.9294 16.1998 19.8073 16.1998 19.68V19.2C16.1998 17.1632 15.3907 15.2097 13.9504 13.7694C12.5101 12.3292 10.5567 11.52 8.51984 11.52Z" fill="#DFE4E9"/>
</svg>
